<svg width="201" height="50" viewBox="0 0 201 50" fill="none" xmlns="http://www.w3.org/2000/svg">
<rect width="201" height="50" rx="8" fill="#974FD0"/>
<path d="M38.956 18.048C38.9 18.456 38.74 18.848 38.476 19.224C38.212 19.6 37.936 19.88 37.648 20.064C37.08 19.64 36.424 19.296 35.68 19.032C34.944 18.76 34.2 18.624 33.448 18.624C32.592 18.624 31.824 18.832 31.144 19.248C30.472 19.656 29.94 20.324 29.548 21.252C29.164 22.172 28.972 23.404 28.972 24.948C28.972 27.036 29.36 28.58 30.136 29.58C30.912 30.572 32.072 31.068 33.616 31.068C34.448 31.068 35.22 30.98 35.932 30.804C36.644 30.62 37.192 30.452 37.576 30.3L38.992 32.304C38.52 32.48 37.964 32.648 37.324 32.808C36.684 32.96 36.004 33.084 35.284 33.18C34.572 33.276 33.856 33.324 33.136 33.324C31.848 33.324 30.76 33.104 29.872 32.664C28.984 32.224 28.264 31.62 27.712 30.852C27.168 30.076 26.768 29.18 26.512 28.164C26.264 27.148 26.14 26.064 26.14 24.912C26.14 23.4 26.344 22.1 26.752 21.012C27.16 19.924 27.708 19.032 28.396 18.336C29.084 17.64 29.856 17.124 30.712 16.788C31.576 16.452 32.464 16.284 33.376 16.284C34.384 16.284 35.384 16.444 36.376 16.764C37.368 17.084 38.228 17.512 38.956 18.048ZM36.376 28.164C36.376 27.604 36.392 27.076 36.424 26.58C36.464 26.076 36.536 25.628 36.64 25.236L38.992 26.04V32.304L36.376 32.34V28.164ZM37.072 24.276C37.792 24.276 38.292 24.432 38.572 24.744C38.852 25.048 38.992 25.48 38.992 26.04V26.616H34.504C34.264 26.616 34.04 26.588 33.832 26.532C33.632 26.468 33.468 26.352 33.34 26.184C33.22 26.016 33.16 25.768 33.16 25.44C33.16 25.248 33.18 25.048 33.22 24.84C33.26 24.632 33.308 24.444 33.364 24.276H37.072ZM51.9528 27.072C51.9528 28.304 51.7528 29.392 51.3528 30.336C50.9608 31.272 50.3728 32.004 49.5888 32.532C48.8128 33.06 47.8528 33.324 46.7088 33.324C45.5568 33.324 44.5928 33.056 43.8168 32.52C43.0408 31.984 42.4568 31.248 42.0648 30.312C41.6728 29.368 41.4768 28.288 41.4768 27.072C41.4768 25.84 41.6728 24.756 42.0648 23.82C42.4648 22.876 43.0528 22.14 43.8288 21.612C44.6048 21.076 45.5648 20.808 46.7088 20.808C47.8608 20.808 48.8248 21.076 49.6008 21.612C50.3848 22.148 50.9728 22.888 51.3648 23.832C51.7568 24.768 51.9528 25.848 51.9528 27.072ZM44.2248 27.072C44.2248 27.8 44.2928 28.488 44.4288 29.136C44.5728 29.776 44.8248 30.296 45.1848 30.696C45.5448 31.088 46.0568 31.284 46.7208 31.284C47.3768 31.284 47.8808 31.088 48.2328 30.696C48.5928 30.296 48.8448 29.776 48.9888 29.136C49.1328 28.488 49.2048 27.8 49.2048 27.072C49.2048 26.344 49.1328 25.656 48.9888 25.008C48.8448 24.36 48.5928 23.836 48.2328 23.436C47.8808 23.036 47.3768 22.836 46.7208 22.836C46.0568 22.836 45.5448 23.036 45.1848 23.436C44.8248 23.836 44.5728 24.36 44.4288 25.008C44.2928 25.656 44.2248 26.344 44.2248 27.072ZM60.4904 19.152C60.4904 18.552 60.5904 18.124 60.7904 17.868C60.9984 17.604 61.3784 17.472 61.9304 17.472H62.9504L63.0944 17.616V29.964C63.0944 30.284 63.1704 30.54 63.3224 30.732C63.4824 30.916 63.7424 31.008 64.1024 31.008H65.7104C65.8544 31.416 65.9264 31.86 65.9264 32.34C65.9264 32.436 65.9224 32.536 65.9144 32.64C65.9144 32.744 65.8984 32.836 65.8664 32.916C65.4664 32.972 65.0264 33.016 64.5464 33.048C64.0744 33.088 63.6024 33.108 63.1304 33.108C62.2744 33.108 61.6184 32.892 61.1624 32.46C60.7144 32.028 60.4904 31.38 60.4904 30.516V19.152ZM66.0584 21.108C66.1304 21.444 66.1664 21.768 66.1664 22.08C66.1664 22.416 66.1304 22.744 66.0584 23.064L62.0504 23.004L58.7264 23.064C58.6464 22.744 58.6064 22.416 58.6064 22.08C58.6064 21.768 58.6464 21.444 58.7264 21.108L62.0864 21.168L66.0584 21.108ZM77.9918 27.072C77.9918 28.304 77.7918 29.392 77.3918 30.336C76.9998 31.272 76.4118 32.004 75.6278 32.532C74.8518 33.06 73.8918 33.324 72.7478 33.324C71.5958 33.324 70.6318 33.056 69.8558 32.52C69.0798 31.984 68.4958 31.248 68.1038 30.312C67.7118 29.368 67.5158 28.288 67.5158 27.072C67.5158 25.84 67.7118 24.756 68.1038 23.82C68.5038 22.876 69.0918 22.14 69.8678 21.612C70.6438 21.076 71.6038 20.808 72.7478 20.808C73.8998 20.808 74.8638 21.076 75.6398 21.612C76.4238 22.148 77.0118 22.888 77.4038 23.832C77.7958 24.768 77.9918 25.848 77.9918 27.072ZM70.2638 27.072C70.2638 27.8 70.3318 28.488 70.4678 29.136C70.6118 29.776 70.8638 30.296 71.2238 30.696C71.5838 31.088 72.0958 31.284 72.7598 31.284C73.4158 31.284 73.9198 31.088 74.2718 30.696C74.6318 30.296 74.8838 29.776 75.0278 29.136C75.1718 28.488 75.2438 27.8 75.2438 27.072C75.2438 26.344 75.1718 25.656 75.0278 25.008C74.8838 24.36 74.6318 23.836 74.2718 23.436C73.9198 23.036 73.4158 22.836 72.7598 22.836C72.0958 22.836 71.5838 23.036 71.2238 23.436C70.8638 23.836 70.6118 24.36 70.4678 25.008C70.3318 25.656 70.2638 26.344 70.2638 27.072ZM87.2494 16.62C87.5534 16.564 87.8814 16.528 88.2334 16.512C88.5934 16.496 88.8854 16.488 89.1094 16.488C89.3334 16.488 89.6014 16.496 89.9134 16.512C90.2334 16.528 90.5454 16.564 90.8494 16.62L92.9974 23.892C93.0534 24.076 93.1254 24.344 93.2134 24.696C93.3014 25.048 93.3974 25.428 93.5014 25.836C93.6054 26.236 93.6974 26.616 93.7774 26.976C93.8574 27.328 93.9094 27.596 93.9334 27.78H94.0774C94.1094 27.596 94.1654 27.328 94.2454 26.976C94.3254 26.616 94.4134 26.236 94.5094 25.836C94.6134 25.428 94.7094 25.048 94.7974 24.696C94.8934 24.344 94.9694 24.076 95.0254 23.892L97.1734 16.62C97.4934 16.564 97.8054 16.528 98.1094 16.512C98.4214 16.496 98.6894 16.488 98.9134 16.488C99.1374 16.488 99.4214 16.496 99.7654 16.512C100.117 16.528 100.453 16.564 100.773 16.62L102.045 32.964C101.845 33.012 101.617 33.048 101.361 33.072C101.105 33.104 100.865 33.12 100.641 33.12C100.433 33.12 100.229 33.112 100.029 33.096C99.8294 33.08 99.6294 33.056 99.4294 33.024L98.8894 24.552C98.8654 24.096 98.8374 23.572 98.8054 22.98C98.7814 22.388 98.7574 21.792 98.7334 21.192C98.7174 20.592 98.7054 20.052 98.6974 19.572H98.5534L95.3974 30.504C95.1974 30.536 94.9654 30.564 94.7014 30.588C94.4374 30.604 94.2014 30.612 93.9934 30.612C93.8014 30.612 93.5734 30.604 93.3094 30.588C93.0454 30.564 92.8134 30.536 92.6134 30.504L89.4574 19.572H89.3254C89.3094 20.052 89.2894 20.592 89.2654 21.192C89.2494 21.792 89.2294 22.388 89.2054 22.98C89.1814 23.572 89.1574 24.096 89.1334 24.552L88.5934 33.024C88.3934 33.056 88.1894 33.08 87.9814 33.096C87.7734 33.112 87.5614 33.12 87.3454 33.12C87.1214 33.12 86.8854 33.104 86.6374 33.072C86.3894 33.048 86.1694 33.012 85.9774 32.964L87.2494 16.62ZM111.682 32.64C111.338 33.832 110.954 34.844 110.53 35.676C110.114 36.516 109.57 37.152 108.898 37.584C108.226 38.024 107.346 38.244 106.258 38.244C105.866 38.244 105.434 38.2 104.962 38.112C104.498 38.024 104.134 37.936 103.87 37.848C103.846 37.536 103.89 37.188 104.002 36.804C104.114 36.428 104.258 36.14 104.434 35.94C104.642 36.004 104.918 36.068 105.262 36.132C105.606 36.204 105.938 36.24 106.258 36.24C106.778 36.24 107.214 36.124 107.566 35.892C107.918 35.668 108.21 35.344 108.442 34.92C108.682 34.496 108.89 33.996 109.066 33.42L109.15 33.132C108.63 33.116 108.214 33.016 107.902 32.832C107.59 32.64 107.358 32.296 107.206 31.8L104.11 21.336C104.406 21.208 104.694 21.112 104.974 21.048C105.262 20.984 105.514 20.952 105.73 20.952C106.042 20.952 106.31 21.036 106.534 21.204C106.758 21.364 106.934 21.672 107.062 22.128L108.61 27.516C108.714 27.868 108.818 28.26 108.922 28.692C109.026 29.116 109.122 29.532 109.21 29.94C109.306 30.34 109.386 30.688 109.45 30.984C109.482 31.096 109.554 31.152 109.666 31.152L112.222 21.132C112.382 21.092 112.562 21.064 112.762 21.048C112.97 21.032 113.162 21.024 113.338 21.024C113.578 21.024 113.814 21.036 114.046 21.06C114.286 21.084 114.514 21.136 114.73 21.216L114.826 21.372L111.682 32.64ZM120.728 18.912C120.688 18.712 120.66 18.512 120.644 18.312C120.628 18.112 120.62 17.932 120.62 17.772C120.62 17.604 120.628 17.42 120.644 17.22C120.66 17.012 120.688 16.808 120.728 16.608H131.888C131.992 16.944 132.044 17.304 132.044 17.688C132.044 18.128 131.92 18.444 131.672 18.636C131.424 18.82 131.04 18.912 130.52 18.912H129.08C128.92 18.912 128.688 18.908 128.384 18.9C128.08 18.892 127.844 18.888 127.676 18.888H124.928C124.768 18.888 124.536 18.892 124.232 18.9C123.936 18.908 123.7 18.912 123.524 18.912H120.728ZM124.928 20.664C124.928 20.336 124.928 20.044 124.928 19.788C124.936 19.524 124.94 19.224 124.94 18.888V17.748H127.664V18.888C127.664 19.224 127.664 19.524 127.664 19.788C127.672 20.044 127.676 20.336 127.676 20.664V33C127.452 33.04 127.216 33.068 126.968 33.084C126.728 33.1 126.508 33.108 126.308 33.108C126.108 33.108 125.884 33.1 125.636 33.084C125.388 33.068 125.152 33.04 124.928 33V20.664ZM131.441 29.76C131.441 28.848 131.645 28.096 132.053 27.504C132.469 26.912 133.025 26.476 133.721 26.196C134.417 25.908 135.197 25.764 136.061 25.764C136.493 25.764 136.989 25.784 137.549 25.824C138.117 25.856 138.641 25.928 139.121 26.04V27.804C138.705 27.708 138.233 27.648 137.705 27.624C137.177 27.592 136.689 27.576 136.241 27.576C135.545 27.576 135.009 27.756 134.633 28.116C134.265 28.476 134.081 28.964 134.081 29.58C134.081 30.044 134.213 30.44 134.477 30.768C134.741 31.088 135.121 31.248 135.617 31.248C136.185 31.248 136.781 31.048 137.405 30.648C138.037 30.248 138.569 29.668 139.001 28.908L139.397 30.876C139.109 31.22 138.753 31.58 138.329 31.956C137.913 32.332 137.425 32.656 136.865 32.928C136.313 33.192 135.689 33.324 134.993 33.324C134.193 33.324 133.529 33.148 133.001 32.796C132.481 32.436 132.089 31.984 131.825 31.44C131.569 30.896 131.441 30.336 131.441 29.76ZM141.581 31.812C141.517 32.052 141.393 32.308 141.209 32.58C141.025 32.844 140.829 33.044 140.621 33.18C140.085 33.092 139.649 32.908 139.313 32.628C138.985 32.348 138.737 32.016 138.569 31.632C138.409 31.24 138.313 30.832 138.281 30.408V25.044C138.281 24.324 138.113 23.808 137.777 23.496C137.449 23.176 136.981 23.016 136.373 23.016C135.781 23.016 135.165 23.104 134.525 23.28C133.893 23.456 133.261 23.664 132.629 23.904C132.421 23.688 132.249 23.396 132.113 23.028C131.977 22.66 131.901 22.308 131.885 21.972C132.341 21.772 132.857 21.592 133.433 21.432C134.017 21.264 134.613 21.132 135.221 21.036C135.829 20.932 136.401 20.88 136.937 20.88C137.713 20.88 138.397 21.024 138.989 21.312C139.589 21.592 140.057 22.028 140.393 22.62C140.737 23.212 140.909 23.976 140.909 24.912V29.82C140.909 30.26 140.953 30.644 141.041 30.972C141.137 31.292 141.317 31.572 141.581 31.812ZM143.329 32.136C143.345 31.832 143.437 31.5 143.605 31.14C143.773 30.772 143.965 30.484 144.181 30.276C144.693 30.548 145.237 30.792 145.813 31.008C146.389 31.224 146.969 31.332 147.553 31.332C148.177 31.332 148.669 31.2 149.029 30.936C149.397 30.672 149.581 30.336 149.581 29.928C149.581 29.608 149.461 29.316 149.221 29.052C148.981 28.78 148.621 28.556 148.141 28.38L146.749 27.864C146.197 27.664 145.689 27.412 145.225 27.108C144.769 26.804 144.401 26.432 144.121 25.992C143.849 25.552 143.713 25.028 143.713 24.42C143.713 23.676 143.897 23.036 144.265 22.5C144.641 21.956 145.153 21.54 145.801 21.252C146.457 20.956 147.197 20.808 148.021 20.808C148.685 20.808 149.389 20.9 150.133 21.084C150.885 21.26 151.509 21.464 152.005 21.696C152.021 22.024 151.953 22.38 151.801 22.764C151.657 23.148 151.469 23.436 151.237 23.628C150.805 23.436 150.305 23.256 149.737 23.088C149.177 22.912 148.601 22.824 148.009 22.824C147.521 22.824 147.129 22.944 146.833 23.184C146.537 23.424 146.389 23.74 146.389 24.132C146.389 24.444 146.505 24.708 146.737 24.924C146.969 25.132 147.321 25.324 147.793 25.5L149.269 26.052C150.173 26.372 150.909 26.824 151.477 27.408C152.053 27.992 152.341 28.756 152.341 29.7C152.341 30.82 151.905 31.704 151.033 32.352C150.161 33 149.005 33.324 147.565 33.324C146.717 33.324 145.929 33.204 145.201 32.964C144.481 32.724 143.857 32.448 143.329 32.136ZM157.572 33C157.196 33.072 156.756 33.108 156.252 33.108C155.788 33.108 155.36 33.072 154.968 33V15.504L155.124 15.348H156.132C156.692 15.348 157.072 15.48 157.272 15.744C157.472 16.008 157.572 16.436 157.572 17.028V33ZM163.752 30.444C163.936 30.948 164.116 31.352 164.292 31.656C164.476 31.952 164.68 32.18 164.904 32.34C164.712 32.564 164.452 32.76 164.124 32.928C163.796 33.088 163.46 33.168 163.116 33.168C162.66 33.168 162.32 33.048 162.096 32.808C161.88 32.568 161.68 32.208 161.496 31.728L160.572 29.424C160.332 28.816 160.076 28.408 159.804 28.2C159.532 27.992 159.136 27.888 158.616 27.888C158.376 27.888 158.132 27.9 157.884 27.924C157.644 27.94 157.384 27.964 157.104 27.996L156.228 28.08V26.172H159.516C160.388 26.172 161.1 26.352 161.652 26.712C162.204 27.072 162.64 27.664 162.96 28.488L163.752 30.444ZM161.652 25.344C161.324 25.912 160.9 26.328 160.38 26.592C159.868 26.848 159.244 26.976 158.508 26.976H156.504V25.752L158.316 25.692C158.46 25.692 158.576 25.664 158.664 25.608C158.752 25.552 158.836 25.456 158.916 25.32L160.884 22.152C161.092 21.792 161.32 21.52 161.568 21.336C161.816 21.144 162.152 21.048 162.576 21.048C162.848 21.048 163.092 21.052 163.308 21.06C163.532 21.06 163.768 21.068 164.016 21.084L164.16 21.276L161.652 25.344ZM165.969 32.136C165.985 31.832 166.077 31.5 166.245 31.14C166.413 30.772 166.605 30.484 166.821 30.276C167.333 30.548 167.877 30.792 168.453 31.008C169.029 31.224 169.609 31.332 170.193 31.332C170.817 31.332 171.309 31.2 171.669 30.936C172.037 30.672 172.221 30.336 172.221 29.928C172.221 29.608 172.101 29.316 171.861 29.052C171.621 28.78 171.261 28.556 170.781 28.38L169.389 27.864C168.837 27.664 168.329 27.412 167.865 27.108C167.409 26.804 167.041 26.432 166.761 25.992C166.489 25.552 166.353 25.028 166.353 24.42C166.353 23.676 166.537 23.036 166.905 22.5C167.281 21.956 167.793 21.54 168.441 21.252C169.097 20.956 169.837 20.808 170.661 20.808C171.325 20.808 172.029 20.9 172.773 21.084C173.525 21.26 174.149 21.464 174.645 21.696C174.661 22.024 174.593 22.38 174.441 22.764C174.297 23.148 174.109 23.436 173.877 23.628C173.445 23.436 172.945 23.256 172.377 23.088C171.817 22.912 171.241 22.824 170.649 22.824C170.161 22.824 169.769 22.944 169.473 23.184C169.177 23.424 169.029 23.74 169.029 24.132C169.029 24.444 169.145 24.708 169.377 24.924C169.609 25.132 169.961 25.324 170.433 25.5L171.909 26.052C172.813 26.372 173.549 26.824 174.117 27.408C174.693 27.992 174.981 28.756 174.981 29.7C174.981 30.82 174.545 31.704 173.673 32.352C172.801 33 171.645 33.324 170.205 33.324C169.357 33.324 168.569 33.204 167.841 32.964C167.121 32.724 166.497 32.448 165.969 32.136Z" fill="#FAF9FB"/>
</svg>
