<svg width="60" height="60" viewBox="0 0 60 60" fill="none" xmlns="http://www.w3.org/2000/svg">
<path d="M34.5752 47.5C34.2017 47.5013 33.8327 47.4188 33.4952 47.2588C33.1578 47.0987 32.8605 46.865 32.6252 46.575L20.5502 31.575C20.1825 31.1277 19.9814 30.5665 19.9814 29.9875C19.9814 29.4084 20.1825 28.8473 20.5502 28.4L33.0502 13.4C33.4745 12.8894 34.0843 12.5684 34.7454 12.5074C35.4064 12.4465 36.0646 12.6506 36.5752 13.075C37.0857 13.4993 37.4068 14.1091 37.4677 14.7702C37.5287 15.4312 37.3245 16.0894 36.9002 16.6L25.7252 30L36.5252 43.4C36.8309 43.7669 37.0251 44.2138 37.0848 44.6877C37.1445 45.1615 37.0672 45.6426 36.862 46.0739C36.6569 46.5052 36.3325 46.8688 35.9272 47.1215C35.5219 47.3742 35.0527 47.5056 34.5752 47.5Z" fill="#292929"/>
</svg>
